<?xml version="1.0"?>
<svg width="794.1218" height="505.34514" xmlns="http://www.w3.org/2000/svg" xmlns:svg="http://www.w3.org/2000/svg" data-name="Layer 1">
 <g class="layer">
  <title>Layer 1</title>
  <path d="m247.46,701.2c-12.25,-1.01 -23.07,-9.87 -29.22,-20.52c-2.06,-3.56 -3.48,-8.25 -1.14,-11.64a6.41,6.41 0 0 1 11.31,1.47a62.05,62.05 0 0 1 -0.96,-12.64c0.09,-3.59 0.77,-7.64 3.75,-9.64c3.46,-2.31 8.45,-0.47 10.97,2.84s3.19,7.63 3.8,11.75a10.83,10.83 0 0 1 12.04,-13.66c5.06,0.76 9.03,5.15 10.58,10.03s1.07,10.19 0.07,15.21c-1.17,5.9 -3.07,11.74 -6.48,16.69s-8.49,8.92 -14.37,10.13l-0.35,-0.02z" fill="#f2f2f2" id="svg_1" transform="translate(-202.9391 -197.32743)"/>
  <path d="m997.06,303.33a106.03,106.03 0 0 1 -71,100.08c-0.66,0.23 -1.33,0.46 -2,0.67l0,-107.71l-138.77,0c0.04,-0.67 0.09,-1.34 0.15,-2l138.62,0l0,-21.04a5,5 0 0 0 -5,-5l-128.08,0c0.23,-0.67 0.47,-1.34 0.73,-2a106.01,106.01 0 0 1 205.35,37z" fill="#f2f2f2" id="svg_2" transform="translate(-202.9391 -197.32743)"/>
  <path d="m919.06,266.33l-487,0a7.01,7.01 0 0 0 -7,7l0,330a7.01,7.01 0 0 0 7,7l487,0a7.01,7.01 0 0 0 7,-7l0,-330a7.01,7.01 0 0 0 -7,-7zm5,337a5,5 0 0 1 -5,5l-487,0a5,5 0 0 1 -5,-5l0,-330a5,5 0 0 1 5,-5l487,0a5,5 0 0 1 5,5l0,330z" fill="#3f3d56" id="svg_3" transform="translate(-202.9391 -197.32743)"/>
  <rect fill="#3f3d56" height="2" id="svg_4" width="499" x="223.12" y="97.04"/>
  <circle cx="240.12" cy="84" fill="#3f3d56" id="svg_5" r="6"/>
  <circle cx="257.37" cy="84" fill="#3f3d56" id="svg_6" r="6"/>
  <circle cx="274.62" cy="84" fill="#3f3d56" id="svg_7" r="6"/>
  <path d="m562.06,335.33l-88,0a7.01,7.01 0 0 0 -7,7l0,88a7.01,7.01 0 0 0 7,7l88,0a7.01,7.01 0 0 0 7,-7l0,-88a7.01,7.01 0 0 0 -7,-7zm5,95a5,5 0 0 1 -5,5l-88,0a5,5 0 0 1 -5,-5l0,-88a5,5 0 0 1 5,-5l88,0a5,5 0 0 1 5,5l0,88z" fill="#3f3d56" id="svg_8" transform="translate(-202.9391 -197.32743)"/>
  <path d="m720.06,335.83l-88,0a6.51,6.51 0 0 0 -6.5,6.5l0,88a6.51,6.51 0 0 0 6.5,6.5l88,0a6.51,6.51 0 0 0 6.5,-6.5l0,-88a6.51,6.51 0 0 0 -6.5,-6.5z" fill="#6c63ff" id="svg_9" transform="translate(-202.9391 -197.32743)"/>
  <path d="m878.06,335.83l-88,0a6.51,6.51 0 0 0 -6.5,6.5l0,88a6.51,6.51 0 0 0 6.5,6.5l88,0a6.51,6.51 0 0 0 6.5,-6.5l0,-88a6.51,6.51 0 0 0 -6.5,-6.5z" fill="#e6e6e6" id="svg_10" transform="translate(-202.9391 -197.32743)"/>
  <path d="m562.06,467.83l-88,0a6.51,6.51 0 0 0 -6.5,6.5l0,88a6.51,6.51 0 0 0 6.5,6.5l88,0a6.51,6.51 0 0 0 6.5,-6.5l0,-88a6.51,6.51 0 0 0 -6.5,-6.5z" fill="#e6e6e6" id="svg_11" transform="translate(-202.9391 -197.32743)"/>
  <path d="m720.06,467.83l-88,0a6.51,6.51 0 0 0 -6.5,6.5l0,88a6.51,6.51 0 0 0 6.5,6.5l88,0a6.51,6.51 0 0 0 6.5,-6.5l0,-88a6.51,6.51 0 0 0 -6.5,-6.5z" fill="#6c63ff" id="svg_12" transform="translate(-202.9391 -197.32743)"/>
  <path d="m878.06,467.83l-88,0a6.51,6.51 0 0 0 -6.5,6.5l0,88a6.51,6.51 0 0 0 6.5,6.5l88,0a6.51,6.51 0 0 0 6.5,-6.5l0,-88a6.51,6.51 0 0 0 -6.5,-6.5z" fill="#e6e6e6" id="svg_13" transform="translate(-202.9391 -197.32743)"/>
  <path d="m540.56,482.33l-88,0a6.51,6.51 0 0 1 -6.5,-6.5l0,-88a6.51,6.51 0 0 1 6.5,-6.5l88,0a6.51,6.51 0 0 1 6.5,6.5l0,88a6.51,6.51 0 0 1 -6.5,6.5z" fill="#6c63ff" id="svg_14" transform="translate(-202.9391 -197.32743)"/>
  <polygon fill="#a0616a" id="svg_15" points="202.746 492.088 214.466 488.491 206.17 441.573 188.872 446.881 202.746 492.088"/>
  <path d="m403.48,680.86l38.53,0a0,0 0 0 1 0,0l0,14.88a0,0 0 0 1 0,0l-23.64,0a14.89,14.89 0 0 1 -14.89,-14.88l0,0a0,0 0 0 1 0,0z" fill="#2f2e41" id="svg_16" transform="translate(825.89112 1024.95669) rotate(162.93912)"/>
  <polygon fill="#a0616a" id="svg_17" points="102.748 492.358 115.008 492.357 120.84 445.069 102.746 445.07 102.748 492.358"/>
  <path d="m303.06,686.18l38.53,0a0,0 0 0 1 0,0l0,14.89a0,0 0 0 1 0,0l-23.64,0a14.89,14.89 0 0 1 -14.89,-14.89l0,0a0,0 0 0 1 0,0z" fill="#2f2e41" id="svg_18" transform="translate(441.74335 1189.90807) rotate(179.99738)"/>
  <path d="m304.81,552.61a9.16,9.16 0 0 1 0.32,-14.05l9.5,-119.69l19.33,4.83l-15.48,116.76a9.21,9.21 0 0 1 -13.67,12.15z" fill="#a0616a" id="svg_19" transform="translate(-202.9391 -197.32743)"/>
  <circle cx="140.58" cy="150.56" fill="#a0616a" id="svg_20" r="24.56"/>
  <path d="m322.16,415.19c-5.54,-7.61 -5.71,-18.09 0.26,-25.37c3.89,-4.75 10.41,-8.55 21.29,-8.55c29,0 40,23 40,23s12,22 5,42s-7,22 -7,22l-46,-4s7.76,-19.83 -13.55,-49.08z" fill="#ccc" id="svg_21" transform="translate(-202.9391 -197.32743)"/>
  <path d="m307.98,435.09l9.91,-32.42a15.5,15.5 0 0 1 21.93,-9.24l0,0a15.53,15.53 0 0 1 7.08,20.01l-12.59,28.69l-26.33,-7.04z" fill="#ccc" id="svg_22" transform="translate(-202.9391 -197.32743)"/>
  <path d="m380.71,463.27l39,202l-21,6l-51,-133l-23,136l-22,3s-9.65,-179.94 33,-213l45,-1z" fill="#2f2e41" id="svg_23" transform="translate(-202.9391 -197.32743)"/>
  <path d="m436.84,453.8a10.53,10.53 0 0 0 -0.96,1.35l-49.54,2.41l-9.53,-29.12l-16.57,7.87l15.59,43.37l61.26,-11.98a10.5,10.5 0 1 0 -0.25,-13.9z" fill="#a0616a" id="svg_24" transform="translate(-202.9391 -197.32743)"/>
  <path d="m353.31,407.18a15.5,15.5 0 0 1 16.37,-17.29l0,0a15.53,15.53 0 0 1 14.53,15.48l0,31.33l-26.93,4.15l-3.97,-33.67z" fill="#ccc" id="svg_25" transform="translate(-202.9391 -197.32743)"/>
  <path d="m348.92,372.67c-3.69,-0.02 -6.53,-3.9 -6.37,-7.58s2.64,-6.93 5.62,-9.1s6.48,-3.49 9.8,-5.08s6.62,-3.59 8.67,-6.65a14.72,14.72 0 0 0 1.02,-13.51a21.67,21.67 0 0 0 -9.33,-10.22a28.38,28.38 0 0 0 -37.61,8.25l-4.2,11.46c-4.29,5.15 -4.97,12.81 -2.34,18.98s8.25,10.8 14.58,13.01a35.79,35.79 0 0 0 19.85,0.59" fill="#2f2e41" id="svg_26" transform="translate(-202.9391 -197.32743)"/>
  <path d="m326.47,334.51c-1.81,-2.9 -4.94,-4.75 -8.18,-5.83a25.72,25.72 0 0 0 -33.84,23c-0.34,6.32 1.64,12.49 2.8,18.71s1.39,13.08 -2.03,18.39c-2.61,4.05 -6.97,6.6 -11.26,8.78c-3.59,1.81 -7.46,3.51 -11.46,3.15s-8.01,-3.53 -7.91,-7.54a32.05,32.05 0 0 0 -2.68,9.08c-0.28,3.16 0.5,6.56 2.78,8.76c3.31,3.2 8.56,2.97 13.11,2.28c9.86,-1.5 19.84,-4.3 27.63,-10.52s12.95,-16.48 10.9,-26.23c-0.86,-4.08 -2.87,-7.8 -4.5,-11.63s-2.89,-8.03 -2.15,-12.13a14.74,14.74 0 0 1 7.5,-9.98a19.6,19.6 0 0 1 12.52,-1.9c2.8,0.46 6.29,1.17 7.95,-1.13a4.51,4.51 0 0 0 -0.09,-4.8a13.25,13.25 0 0 0 -3.59,-3.56" fill="#2f2e41" id="svg_27" transform="translate(-202.9391 -197.32743)"/>
  <path d="m511.42,702.67l-307.29,0a1.19,1.19 0 1 1 0,-2.38l307.29,0a1.19,1.19 0 1 1 0,2.38z" fill="#3f3d56" id="svg_28" transform="translate(-202.9391 -197.32743)"/>
 </g>
</svg>