<?xml version="1.0"?>
<svg width="936.13137" height="505.29587" xmlns="http://www.w3.org/2000/svg" xmlns:svg="http://www.w3.org/2000/svg" data-name="Layer 1">
 <g class="layer">
  <title>Layer 1</title>
  <rect fill="rgb(255, 255, 255)" height="359.44" id="svg_152" rx="16" ry="16" stroke="rgba(0, 0, 0, 0)" transform="matrix(1 0 0 1 0 0)" width="401.9" x="4.82" y="1.51"/>
  <path d="m59.3,422.01l-2.92,14.65c-0.22,1.12 -0.45,2.26 -0.7,3.39a14.29,14.29 0 0 0 -7.34,0.41a68.51,68.51 0 0 1 5.04,8.43c-1.84,5.67 -4.54,10.91 -9.06,14.7a22.72,22.72 0 0 1 -21.95,3.86l0.13,-0.58c-4.86,-9.43 -2.22,-21.32 3.82,-30.03a58.38,58.38 0 0 1 10.85,-11.47c4.08,-3.4 8.49,-6.45 12.86,-9.46a5.99,5.99 0 0 1 9.27,6.1z" fill="#6c63ff" id="svg_1"/>
  <path d="m23.41,502.7c-1.23,-8.95 -2.49,-18.02 -1.63,-27.07c0.76,-8.04 3.22,-15.88 8.21,-22.32a37.13,37.13 0 0 1 9.52,-8.63c0.96,-0.6 1.83,0.91 0.89,1.5a35.3,35.3 0 0 0 -13.97,16.85c-3.04,7.73 -3.53,16.16 -3,24.37c0.32,4.97 0.99,9.9 1.67,14.83a0.9,0.9 0 0 1 -0.61,1.08a0.88,0.88 0 0 1 -1.08,-0.61z" data-name="a4b268fa-75d0-4ac1-9d87-14bdca948464-2189" fill="#f2f2f2" id="b311a411-101b-4365-a37b-2cdfec47a637-88"/>
  <path d="m33.96,53.64q64.25,-1.12 128.52,-0.33q64.26,0.81 128.48,3.53q36.04,1.53 72.04,3.66c1.93,0.11 1.92,-2.89 0,-3q-64.15,-3.8 -128.4,-5.68q-64.24,-1.88 -128.51,-1.84q-36.07,0.03 -72.13,0.66c-1.93,0.03 -1.94,3.03 0,3z" fill="#e6e6e6" id="svg_2"/>
  <path d="m332.49,34.83l18.73,-1.4c1.92,-0.14 1.93,-3.14 0,-3l-18.73,1.4c-1.91,0.14 -1.93,3.14 0,3z" fill="#e6e6e6" id="svg_3"/>
  <path d="m332.49,52.83l18.73,-1.4c1.92,-0.14 1.93,-3.14 0,-3l-18.73,1.4c-1.91,0.14 -1.93,3.14 0,3z" fill="#e6e6e6" id="svg_4"/>
  <path d="m331.08,44.61l26.63,2.41c1.93,0.18 1.92,-2.82 0,-3l-26.63,-2.41c-1.92,-0.18 -1.91,2.82 0,3z" fill="#e6e6e6" id="svg_5"/>
  <path d="m45.04,30.79a6.64,6.64 0 0 0 -6.13,4.01a5.97,5.97 0 0 0 1.37,7.09a7.1,7.1 0 0 0 6.73,1.37a6,6 0 0 0 4.03,-5.64a6.71,6.71 0 0 0 -4.18,-6.47a1.51,1.51 0 0 0 -1.85,1.04a1.54,1.54 0 0 0 1.05,1.85c0.26,0.1 -0.24,-0.13 0.01,0c0.1,0.06 0.2,0.11 0.3,0.17c0.08,0.05 0.16,0.1 0.24,0.15c0.28,0.19 -0.13,-0.13 0.04,0.03c0.16,0.15 0.31,0.29 0.45,0.44c0.06,0.06 0.27,0.23 0.1,0.11c-0.12,-0.09 -0.04,-0.07 0,0.01c0.04,0.05 0.08,0.1 0.11,0.16a5.35,5.35 0 0 1 0.32,0.55c0.02,0.04 0.05,0.09 0.07,0.13c0.04,0.08 0.1,0.1 0,0c-0.09,-0.1 -0.03,-0.09 0,0c0.02,0.06 0.05,0.13 0.07,0.19a5.78,5.78 0 0 1 0.18,0.62c0.02,0.09 0.04,0.19 0.05,0.29c0.07,0.34 -0.01,-0.22 0.01,0.04c0.01,0.21 0.03,0.42 0.03,0.64q-0.01,0.14 -0.02,0.29c0,0.05 -0.01,0.1 -0.01,0.15c-0.01,0.23 -0.01,-0.09 0.02,-0.11a2.77,2.77 0 0 0 -0.14,0.62c-0.02,0.09 -0.06,0.18 -0.09,0.27c-0.1,0.33 0.1,-0.17 -0.01,0.05a5.49,5.49 0 0 1 -0.31,0.55c-0.04,0.07 -0.23,0.24 -0.08,0.12c0.17,-0.12 -0.08,0.09 -0.14,0.15q-0.1,0.11 -0.21,0.21a1.7,1.7 0 0 1 -0.15,0.13c-0.01,-0.01 0.25,-0.18 0.11,-0.09c-0.18,0.12 -0.34,0.24 -0.53,0.34c-0.02,0.01 -0.26,0.12 -0.26,0.12c-0.01,-0.04 0.31,-0.11 0.09,-0.04c-0.05,0.02 -0.1,0.04 -0.14,0.05a4.9,4.9 0 0 1 -0.61,0.16c-0.05,0.01 -0.1,0.02 -0.14,0.03c-0.16,0.04 0.14,-0.02 0.15,-0.02a1.31,1.31 0 0 0 -0.34,0.03a5.58,5.58 0 0 1 -0.64,0c-0.05,0 -0.1,-0.01 -0.14,-0.01c-0.12,-0.01 -0.2,-0.09 -0.05,0c0.12,0.07 0.11,0.02 0,0c-0.05,-0.01 -0.09,-0.02 -0.14,-0.02a5.82,5.82 0 0 1 -0.63,-0.16c-0.11,-0.03 -0.22,-0.07 -0.32,-0.11a0.87,0.87 0 0 1 -0.14,-0.05c0,-0.01 0.28,0.13 0.13,0.05c-0.19,-0.1 -0.38,-0.18 -0.56,-0.29c-0.1,-0.06 -0.2,-0.13 -0.29,-0.19a0.92,0.92 0 0 1 -0.12,-0.08c0,-0.02 0.23,0.2 0.11,0.08c-0.15,-0.14 -0.31,-0.27 -0.46,-0.43c-0.03,-0.03 -0.06,-0.07 -0.09,-0.11l-0.04,-0.03q-0.12,-0.15 0,0c0.08,0.02 0.08,0.11 0,0c-0.03,-0.04 -0.06,-0.08 -0.08,-0.12a3.13,3.13 0 0 1 -0.31,-0.56c0.01,0 0.13,0.36 0.03,0.09c-0.01,-0.06 -0.03,-0.11 -0.05,-0.16q-0.05,-0.15 -0.09,-0.31c-0.03,-0.11 -0.04,-0.22 -0.07,-0.32c-0.04,-0.18 0.03,0.14 0.02,0.13c-0.02,-0.03 -0.01,-0.18 -0.02,-0.22c-0.01,-0.23 0.02,-0.46 0.02,-0.69c0.01,-0.19 -0.01,0.14 -0.02,0.13a0.51,0.51 0 0 1 0.03,-0.16c0.03,-0.12 0.06,-0.25 0.09,-0.37q0.06,-0.21 0.13,-0.41c0.02,-0.05 0.04,-0.11 0.06,-0.16c0.06,-0.18 -0.13,0.23 -0.02,0.06c0.14,-0.23 0.25,-0.49 0.4,-0.72c0.03,-0.05 0.25,-0.36 0.14,-0.2c-0.12,0.15 0.11,-0.14 0.16,-0.19c0.18,-0.2 0.4,-0.37 0.59,-0.57c0.11,-0.11 -0.08,0.06 -0.09,0.07c0.06,-0.04 0.12,-0.09 0.18,-0.13q0.15,-0.11 0.32,-0.2c0.12,-0.08 0.26,-0.13 0.38,-0.21c0.14,-0.09 -0.11,0.04 -0.11,0.05a1.12,1.12 0 0 1 0.2,-0.08c0.11,-0.04 0.62,-0.26 0.72,-0.19c0,0 -0.38,0.03 -0.07,0.01c0.07,0 0.14,-0.01 0.21,-0.01c0.15,-0.01 0.3,-0.01 0.44,0a1.51,1.51 0 0 0 1.5,-1.5a1.53,1.53 0 0 0 -1.5,-1.5z" fill="#e6e6e6" id="svg_6"/>
  <path d="m66.04,30.79a6.64,6.64 0 0 0 -6.13,4.01a5.97,5.97 0 0 0 1.37,7.09a7.1,7.1 0 0 0 6.73,1.37a6,6 0 0 0 4.03,-5.64a6.71,6.71 0 0 0 -4.18,-6.47a1.51,1.51 0 0 0 -1.85,1.04a1.54,1.54 0 0 0 1.05,1.85c0.26,0.1 -0.24,-0.13 0.01,0c0.1,0.06 0.2,0.11 0.3,0.17c0.08,0.05 0.16,0.1 0.24,0.15c0.28,0.19 -0.13,-0.13 0.04,0.03c0.16,0.15 0.31,0.29 0.45,0.44c0.06,0.06 0.27,0.23 0.1,0.11c-0.12,-0.09 -0.04,-0.07 0,0.01c0.04,0.05 0.08,0.1 0.11,0.16a5.35,5.35 0 0 1 0.32,0.55c0.02,0.04 0.05,0.09 0.07,0.13c0.04,0.08 0.1,0.1 0,0c-0.09,-0.1 -0.03,-0.09 0,0c0.02,0.06 0.05,0.13 0.07,0.19a5.78,5.78 0 0 1 0.18,0.62c0.02,0.09 0.04,0.19 0.05,0.29c0.07,0.34 -0.01,-0.22 0.01,0.04c0.01,0.21 0.03,0.42 0.03,0.64q-0.01,0.14 -0.02,0.29c0,0.05 -0.01,0.1 -0.01,0.15c-0.01,0.23 -0.01,-0.09 0.02,-0.11a2.77,2.77 0 0 0 -0.14,0.62c-0.02,0.09 -0.06,0.18 -0.09,0.27c-0.1,0.33 0.1,-0.17 -0.01,0.05a5.49,5.49 0 0 1 -0.31,0.55c-0.04,0.07 -0.23,0.24 -0.08,0.12c0.17,-0.12 -0.08,0.09 -0.14,0.15q-0.1,0.11 -0.21,0.21a1.7,1.7 0 0 1 -0.15,0.13c-0.01,-0.01 0.25,-0.18 0.11,-0.09c-0.18,0.12 -0.34,0.24 -0.53,0.34c-0.02,0.01 -0.26,0.12 -0.26,0.12c-0.01,-0.04 0.31,-0.11 0.09,-0.04c-0.05,0.02 -0.1,0.04 -0.14,0.05a4.9,4.9 0 0 1 -0.61,0.16c-0.05,0.01 -0.1,0.02 -0.14,0.03c-0.16,0.04 0.14,-0.02 0.15,-0.02a1.31,1.31 0 0 0 -0.34,0.03a5.58,5.58 0 0 1 -0.64,0c-0.05,0 -0.1,-0.01 -0.14,-0.01c-0.12,-0.01 -0.2,-0.09 -0.05,0c0.12,0.07 0.11,0.02 0,0c-0.05,-0.01 -0.09,-0.02 -0.14,-0.02a5.82,5.82 0 0 1 -0.63,-0.16c-0.11,-0.03 -0.22,-0.07 -0.32,-0.11a0.87,0.87 0 0 1 -0.14,-0.05c0,-0.01 0.28,0.13 0.13,0.05c-0.19,-0.1 -0.38,-0.18 -0.56,-0.29c-0.1,-0.06 -0.2,-0.13 -0.29,-0.19a0.92,0.92 0 0 1 -0.12,-0.08c0,-0.02 0.23,0.2 0.11,0.08c-0.15,-0.14 -0.31,-0.27 -0.46,-0.43c-0.03,-0.03 -0.06,-0.07 -0.09,-0.11l-0.04,-0.03q-0.12,-0.15 0,0c0.08,0.02 0.08,0.11 0,0c-0.03,-0.04 -0.06,-0.08 -0.08,-0.12a3.13,3.13 0 0 1 -0.31,-0.56c0.01,0 0.13,0.36 0.03,0.09c-0.01,-0.06 -0.03,-0.11 -0.05,-0.16q-0.05,-0.15 -0.09,-0.31c-0.03,-0.11 -0.04,-0.22 -0.07,-0.32c-0.04,-0.18 0.03,0.14 0.02,0.13c-0.02,-0.03 -0.01,-0.18 -0.02,-0.22c-0.01,-0.23 0.02,-0.46 0.02,-0.69c0.01,-0.19 -0.01,0.14 -0.02,0.13a0.51,0.51 0 0 1 0.03,-0.16c0.03,-0.12 0.06,-0.25 0.09,-0.37q0.06,-0.21 0.13,-0.41c0.02,-0.05 0.04,-0.11 0.06,-0.16c0.06,-0.18 -0.13,0.23 -0.02,0.06c0.14,-0.23 0.25,-0.49 0.4,-0.72c0.03,-0.05 0.25,-0.36 0.14,-0.2c-0.12,0.15 0.11,-0.14 0.16,-0.19c0.18,-0.2 0.4,-0.37 0.59,-0.57c0.11,-0.11 -0.08,0.06 -0.09,0.07c0.06,-0.04 0.12,-0.09 0.18,-0.13q0.15,-0.11 0.32,-0.2c0.12,-0.08 0.26,-0.13 0.38,-0.21c0.14,-0.09 -0.11,0.04 -0.11,0.05a1.12,1.12 0 0 1 0.2,-0.08c0.11,-0.04 0.62,-0.26 0.72,-0.19c0,0 -0.38,0.03 -0.07,0.01c0.07,0 0.14,-0.01 0.21,-0.01c0.15,-0.01 0.3,-0.01 0.44,0a1.51,1.51 0 0 0 1.5,-1.5a1.53,1.53 0 0 0 -1.5,-1.5z" fill="#e6e6e6" id="svg_7"/>
  <path d="m87.04,30.79a6.64,6.64 0 0 0 -6.13,4.01a5.97,5.97 0 0 0 1.37,7.09a7.1,7.1 0 0 0 6.73,1.37a6,6 0 0 0 4.03,-5.64a6.71,6.71 0 0 0 -4.18,-6.47a1.51,1.51 0 0 0 -1.85,1.04a1.54,1.54 0 0 0 1.05,1.85c0.26,0.1 -0.24,-0.13 0.01,0c0.1,0.06 0.2,0.11 0.3,0.17c0.08,0.05 0.16,0.1 0.24,0.15c0.28,0.19 -0.13,-0.13 0.04,0.03c0.16,0.15 0.31,0.29 0.45,0.44c0.06,0.06 0.27,0.23 0.1,0.11c-0.12,-0.09 -0.04,-0.07 0,0.01c0.04,0.05 0.08,0.1 0.11,0.16a5.35,5.35 0 0 1 0.32,0.55c0.02,0.04 0.05,0.09 0.07,0.13c0.04,0.08 0.1,0.1 0,0c-0.09,-0.1 -0.03,-0.09 0,0c0.02,0.06 0.05,0.13 0.07,0.19a5.78,5.78 0 0 1 0.18,0.62c0.02,0.09 0.04,0.19 0.05,0.29c0.07,0.34 -0.01,-0.22 0.01,0.04c0.01,0.21 0.03,0.42 0.03,0.64q-0.01,0.14 -0.02,0.29c0,0.05 -0.01,0.1 -0.01,0.15c-0.01,0.23 -0.01,-0.09 0.02,-0.11a2.77,2.77 0 0 0 -0.14,0.62c-0.02,0.09 -0.06,0.18 -0.09,0.27c-0.1,0.33 0.1,-0.17 -0.01,0.05a5.49,5.49 0 0 1 -0.31,0.55c-0.04,0.07 -0.23,0.24 -0.08,0.12c0.17,-0.12 -0.08,0.09 -0.14,0.15q-0.1,0.11 -0.21,0.21a1.7,1.7 0 0 1 -0.15,0.13c-0.01,-0.01 0.25,-0.18 0.11,-0.09c-0.18,0.12 -0.34,0.24 -0.53,0.34c-0.02,0.01 -0.26,0.12 -0.26,0.12c-0.01,-0.04 0.31,-0.11 0.09,-0.04c-0.05,0.02 -0.1,0.04 -0.14,0.05a4.9,4.9 0 0 1 -0.61,0.16c-0.05,0.01 -0.1,0.02 -0.14,0.03c-0.16,0.04 0.14,-0.02 0.15,-0.02a1.31,1.31 0 0 0 -0.34,0.03a5.58,5.58 0 0 1 -0.64,0c-0.05,0 -0.1,-0.01 -0.14,-0.01c-0.12,-0.01 -0.2,-0.09 -0.05,0c0.12,0.07 0.11,0.02 0,0c-0.05,-0.01 -0.09,-0.02 -0.14,-0.02a5.82,5.82 0 0 1 -0.63,-0.16c-0.11,-0.03 -0.22,-0.07 -0.32,-0.11a0.87,0.87 0 0 1 -0.14,-0.05c0,-0.01 0.28,0.13 0.13,0.05c-0.19,-0.1 -0.38,-0.18 -0.56,-0.29c-0.1,-0.06 -0.2,-0.13 -0.29,-0.19a0.92,0.92 0 0 1 -0.12,-0.08c0,-0.02 0.23,0.2 0.11,0.08c-0.15,-0.14 -0.31,-0.27 -0.46,-0.43c-0.03,-0.03 -0.06,-0.07 -0.09,-0.11l-0.04,-0.03q-0.12,-0.15 0,0c0.08,0.02 0.08,0.11 0,0c-0.03,-0.04 -0.06,-0.08 -0.08,-0.12a3.13,3.13 0 0 1 -0.31,-0.56c0.01,0 0.13,0.36 0.03,0.09c-0.01,-0.06 -0.03,-0.11 -0.05,-0.16q-0.05,-0.15 -0.09,-0.31c-0.03,-0.11 -0.04,-0.22 -0.07,-0.32c-0.04,-0.18 0.03,0.14 0.02,0.13c-0.02,-0.03 -0.01,-0.18 -0.02,-0.22c-0.01,-0.23 0.02,-0.46 0.02,-0.69c0.01,-0.19 -0.01,0.14 -0.02,0.13a0.51,0.51 0 0 1 0.03,-0.16c0.03,-0.12 0.06,-0.25 0.09,-0.37q0.06,-0.21 0.13,-0.41c0.02,-0.05 0.04,-0.11 0.06,-0.16c0.06,-0.18 -0.13,0.23 -0.02,0.06c0.14,-0.23 0.25,-0.49 0.4,-0.72c0.03,-0.05 0.25,-0.36 0.14,-0.2c-0.12,0.15 0.11,-0.14 0.16,-0.19c0.18,-0.2 0.4,-0.37 0.59,-0.57c0.11,-0.11 -0.08,0.06 -0.09,0.07c0.06,-0.04 0.12,-0.09 0.18,-0.13q0.15,-0.11 0.32,-0.2c0.12,-0.08 0.26,-0.13 0.38,-0.21c0.14,-0.09 -0.11,0.04 -0.11,0.05a1.12,1.12 0 0 1 0.2,-0.08c0.11,-0.04 0.62,-0.26 0.72,-0.19c0,0 -0.38,0.03 -0.07,0.01c0.07,0 0.14,-0.01 0.21,-0.01c0.15,-0.01 0.3,-0.01 0.44,0a1.51,1.51 0 0 0 1.5,-1.5a1.53,1.53 0 0 0 -1.5,-1.5z" fill="#e6e6e6" id="svg_8"/>
  <path d="m390.42,363l-367.91,0a17.57,17.57 0 0 1 -17.55,-17.54l0,-327.91a17.57,17.57 0 0 1 17.55,-17.55l367.91,0a17.57,17.57 0 0 1 17.54,17.55l0,327.91a17.57,17.57 0 0 1 -17.54,17.54zm-367.91,-361a15.57,15.57 0 0 0 -15.55,15.55l0,327.91a15.56,15.56 0 0 0 15.55,15.54l367.91,0a15.56,15.56 0 0 0 15.54,-15.54l0,-327.91a15.57,15.57 0 0 0 -15.54,-15.55l-367.91,0z" fill="#e6e6e6" id="svg_9"/>
  <path d="m21.9,223.11l129.38,-0.4l128.72,-0.39l72.61,-0.22a1.5,1.5 0 0 0 0,-3l-129.38,0.4l-128.72,0.39l-72.61,0.22a1.5,1.5 0 0 0 0,3z" fill="#e6e6e6" id="svg_10"/>
  <path d="m87.17,220.68l0.8,-47.24c0.03,-1.93 -2.97,-1.93 -3,0l-0.8,47.24c-0.03,1.93 2.97,1.93 3,0z" fill="#e6e6e6" id="svg_11"/>
  <path d="m149.01,221.19l1.95,-59.38l0.55,-16.96c0.07,-1.93 -2.93,-1.93 -3,0l-1.95,59.37l-0.55,16.97c-0.07,1.93 2.93,1.93 3,0z" fill="#e6e6e6" id="svg_12"/>
  <path d="m210.67,116.7c-1.17,21.03 -3.35,83.06 -4.52,104.09c-0.11,1.93 2.89,1.93 3,0c1.17,-21.03 3.35,-83.06 4.52,-104.09c0.11,-1.93 -2.89,-1.92 -3,0z" fill="#e6e6e6" id="svg_13"/>
  <path d="m272.05,199.69l-0.37,20.21c-0.04,1.94 2.96,1.94 3,0c0.43,-23.87 1.55,-23.09 1.67,-29.83c0.03,-1.93 -2.97,-1.93 -3,0c0,0 -0.87,-14.25 -1.3,9.62z" fill="#e6e6e6" id="svg_14"/>
  <path d="m332.16,146.59l0.34,56.71l0.09,16.24a1.5,1.5 0 0 0 3,0l-0.34,-56.71l-0.09,-16.24a1.5,1.5 0 0 0 -3,0z" fill="#e6e6e6" id="svg_15"/>
  <path d="m22.14,221.42c-2.48,-6.82 3.12,-13.39 8.87,-16.34c6.89,-3.53 14.82,-4.33 21.78,-7.74c10.38,-5.07 17.94,-14.19 24.67,-23.31c6.93,-9.39 13.27,-19.47 22.07,-27.27a44.19,44.19 0 0 1 16.07,-9.3c7.5,-2.34 15.45,-2.5 23.21,-1.56c16.02,1.95 30.86,8.57 46.32,12.78c14.57,3.96 30.63,6.19 44.93,0.02c7.27,-3.13 13.21,-8.38 19.59,-12.93a65.3,65.3 0 0 1 20.41,-9.84c14.36,-3.99 30.04,-2.93 43.41,3.82a58.24,58.24 0 0 1 27.47,28.99c6.33,15.14 5.51,32.06 3.44,47.99c-0.54,4.12 -1.17,8.23 -1.82,12.33c-0.29,1.89 2.6,2.7 2.9,0.8c2.57,-16.43 5.14,-33.38 1.94,-49.92a60.46,60.46 0 0 0 -22.33,-36.37a62.04,62.04 0 0 0 -40.92,-12.92a67.08,67.08 0 0 0 -22.47,5c-7.42,3.07 -13.7,7.62 -20.08,12.41c-6.57,4.92 -13.33,8.99 -21.48,10.59c-7.9,1.56 -16.12,0.98 -23.98,-0.49c-16.24,-3.04 -31.37,-9.99 -47.46,-13.55c-14.91,-3.3 -31,-3.63 -44.36,4.79c-10.27,6.48 -17.53,16.54 -24.49,26.26c-6.91,9.62 -13.9,19.92 -23.99,26.5c-6.16,4.01 -13.08,5.49 -19.97,7.75c-6.91,2.26 -13.54,6.08 -16.36,13.15a12.79,12.79 0 0 0 -0.26,9.16c0.65,1.8 3.55,1.02 2.89,-0.8z" fill="#e6e6e6" id="svg_16"/>
  <polygon fill="#e6e6e6" id="svg_17" points="86.171 166.905 86.167 166.907 86.175 166.905 86.171 166.905"/>
  <path d="m91.38,164.15a5.96,5.96 0 0 0 -7.23,-2.68a5.25,5.25 0 0 0 -2.99,2.79c-0.05,0.13 -0.09,0.28 -0.13,0.42c-0.07,0.1 -0.15,0.2 -0.2,0.31a5.96,5.96 0 0 0 9.29,7.11a6.42,6.42 0 0 0 1.26,-7.95zm-3.76,2.55c0.01,0.07 0.01,0.14 0,0zm-0.38,-0.87c-0.02,-0.02 -0.02,-0.02 0,0zm-1.69,0.67c-0.02,-0.03 -0.02,-0.04 0,0zm0.4,0.34c0.1,0.03 0.06,0.03 0,0zm0.18,0.09l0.04,-0.02a0.05,0.05 0 0 1 -0.03,-0.01l0,0l0.04,0.01l0,-0.01l-0.02,0c0.02,0 0.02,0 0.02,0c0.18,-0.08 0.06,-0.04 -0.04,-0.01l-0.01,0a0.68,0.68 0 0 0 -0.21,-0.06c0,-0.01 -0.01,-0.01 -0.02,-0.01c-0.05,-0.05 -0.34,-0.27 -0.08,-0.03c-0.05,-0.06 -0.11,-0.11 -0.17,-0.16a0.78,0.78 0 0 1 -0.09,-0.11q-0.05,-0.09 -0.1,-0.18l0,-0.04c-0.01,-0.03 -0.01,-0.04 -0.01,-0.05c0,-0.02 0,-0.04 0,-0.06a0.65,0.65 0 0 0 0.04,-0.16l0.01,-0.02c0.05,-0.06 0.08,-0.13 0.12,-0.19c-0.21,0.33 0.09,-0.04 0.11,-0.08c0.01,-0.01 0,-0.01 0,-0.01c0.01,-0.01 0.01,-0.01 0.02,-0.01c0.07,-0.04 0.13,-0.09 0.2,-0.12c0.08,-0.05 0.4,-0.14 0.07,-0.04c0.07,-0.03 0.15,-0.05 0.22,-0.07c0.02,-0.01 0.13,-0.02 0.19,-0.03c0.05,0 0.1,-0.01 0.11,-0.01c0.02,0 0.05,0.01 0.07,0.01c-0.05,0.01 0.19,0.06 0.26,0.07c0.02,0.01 0.02,0.01 0.03,0.02c0.07,0.05 0.14,0.09 0.21,0.13c-0.29,-0.19 0,0.02 0.06,0.07c0.03,0.03 0.06,0.07 0.09,0.1a0.81,0.81 0 0 1 0.08,0.11c0.04,0.09 0.1,0.18 0.15,0.26l0.01,0.02a0.08,0.08 0 0 0 0,0.01a2.37,2.37 0 0 0 0.11,0.41a0.33,0.33 0 0 1 0.01,0.03c0,0.08 0.01,0.16 0.01,0.23l0,0.02a1.64,1.64 0 0 0 -1.5,-0.01z" fill="#e6e6e6" id="svg_18"/>
  <path d="m86.18,166.91c0.01,0 0,0 0,0z" fill="#e6e6e6" id="svg_19"/>
  <path d="m86.18,166.9l0,0.01l0,-0.01z" fill="#e6e6e6" id="svg_20"/>
  <path d="m86.18,166.91l0,0c0.01,0 0,0 0,0z" fill="#e6e6e6" id="svg_21"/>
  <polygon fill="#e6e6e6" id="svg_22" points="86.177 166.902 86.177 166.902 86.179 166.903 86.177 166.902"/>
  <polygon fill="#e6e6e6" id="svg_23" points="150.171 138.905 150.167 138.907 150.175 138.905 150.171 138.905"/>
  <path d="m155.38,136.15a5.96,5.96 0 0 0 -7.23,-2.68a5.25,5.25 0 0 0 -2.99,2.79c-0.05,0.13 -0.09,0.28 -0.13,0.42c-0.07,0.1 -0.15,0.2 -0.2,0.31a5.96,5.96 0 0 0 9.29,7.11a6.42,6.42 0 0 0 1.26,-7.95zm-3.76,2.55c0.01,0.07 0.01,0.14 0,0zm-0.38,-0.87c-0.02,-0.02 -0.02,-0.02 0,0zm-1.69,0.67c-0.02,-0.03 -0.02,-0.04 0,0zm0.4,0.34c0.1,0.03 0.06,0.03 0,0zm0.18,0.09l0.04,-0.02a0.05,0.05 0 0 1 -0.03,-0.01l0,0l0.04,0.01l0,-0.01l-0.02,0c0.02,0 0.02,0 0.02,0c0.18,-0.08 0.06,-0.04 -0.04,-0.01l-0.01,0a0.68,0.68 0 0 0 -0.21,-0.06c0,-0.01 -0.01,-0.01 -0.02,-0.01c-0.05,-0.05 -0.34,-0.27 -0.08,-0.03c-0.05,-0.06 -0.11,-0.11 -0.17,-0.16a0.78,0.78 0 0 1 -0.09,-0.11q-0.05,-0.09 -0.1,-0.18l0,-0.04c-0.01,-0.03 -0.01,-0.04 -0.01,-0.05c0,-0.02 0,-0.04 0,-0.06a0.65,0.65 0 0 0 0.04,-0.16l0.01,-0.02c0.05,-0.06 0.08,-0.13 0.12,-0.19c-0.21,0.33 0.09,-0.04 0.11,-0.08c0.01,-0.01 0,-0.01 0,-0.01c0.01,-0.01 0.01,-0.01 0.02,-0.01c0.06,-0.04 0.13,-0.09 0.2,-0.12c0.08,-0.05 0.4,-0.14 0.07,-0.04c0.07,-0.03 0.14,-0.05 0.22,-0.07c0.02,-0.01 0.13,-0.02 0.19,-0.03c0.05,0 0.1,-0.01 0.11,-0.01c0.02,0 0.05,0.01 0.07,0.01c-0.05,0.01 0.19,0.06 0.26,0.07c0.02,0.01 0.02,0.01 0.03,0.02c0.07,0.05 0.14,0.09 0.21,0.13c-0.29,-0.19 0,0.02 0.05,0.07c0.04,0.03 0.07,0.07 0.1,0.1a0.81,0.81 0 0 1 0.08,0.11c0.04,0.09 0.1,0.18 0.15,0.26l0.01,0.02a0.08,0.08 0 0 0 0,0.01a2.37,2.37 0 0 0 0.11,0.41a0.33,0.33 0 0 1 0.01,0.03c0,0.08 0.01,0.16 0.01,0.23l0,0.02a1.64,1.64 0 0 0 -1.5,-0.01z" fill="#e6e6e6" id="svg_24"/>
  <path d="m150.18,138.91l0,0c0.01,0 0,0 0,0z" fill="#e6e6e6" id="svg_25"/>
  <polygon fill="#e6e6e6" id="svg_26" points="150.177 138.902 150.177 138.902 150.179 138.903 150.177 138.902"/>
  <path d="m150.18,138.91c0.01,0 0,0 0,0z" fill="#e6e6e6" id="svg_27"/>
  <path d="m150.18,138.9l0,0.01l0,-0.01z" fill="#e6e6e6" id="svg_28"/>
  <polygon fill="#e6e6e6" id="svg_29" points="212.177 152.902 212.177 152.902 212.179 152.903 212.177 152.902"/>
  <path d="m217.38,108.15a5.96,5.96 0 0 0 -7.23,-2.68a5.25,5.25 0 0 0 -2.99,2.79c-0.05,0.13 -0.09,0.28 -0.13,0.42c-0.07,0.1 -0.15,0.2 -0.2,0.31a5.96,5.96 0 0 0 9.29,7.11a6.42,6.42 0 0 0 1.26,-7.95zm-3.76,2.55c0.01,0.07 0.01,0.14 0,0zm-0.38,-0.87c-0.02,-0.02 -0.02,-0.02 0,0zm-1.69,0.67c-0.02,-0.03 -0.02,-0.04 0,0zm0.4,0.34c0.1,0.03 0.06,0.03 0,0zm0.18,0.09l0.04,-0.02a0.05,0.05 0 0 1 -0.03,-0.01l0,0l0.04,0.01l0,-0.01l-0.02,0c0.02,0 0.02,0 0.02,0c0.18,-0.08 0.06,-0.04 -0.04,-0.01l-0.01,0a0.68,0.68 0 0 0 -0.21,-0.06c0,-0.01 -0.01,-0.01 -0.02,-0.01c-0.05,-0.05 -0.34,-0.27 -0.08,-0.03c-0.05,-0.06 -0.11,-0.11 -0.17,-0.16a0.78,0.78 0 0 1 -0.09,-0.11q-0.05,-0.09 -0.1,-0.18l0,-0.04c-0.01,-0.03 -0.01,-0.04 -0.01,-0.05c0,-0.02 0,-0.04 0,-0.06a0.65,0.65 0 0 0 0.04,-0.16l0.01,-0.02c0.05,-0.06 0.08,-0.13 0.12,-0.19c-0.21,0.33 0.09,-0.04 0.11,-0.08c0.01,-0.01 0,-0.01 0,-0.01c0.01,-0.01 0.01,-0.01 0.02,-0.01c0.06,-0.04 0.13,-0.09 0.2,-0.12c0.08,-0.05 0.4,-0.14 0.07,-0.04c0.07,-0.03 0.14,-0.05 0.22,-0.07c0.02,-0.01 0.13,-0.02 0.19,-0.03c0.05,0 0.1,-0.01 0.11,-0.01c0.02,0 0.05,0.01 0.07,0.01c-0.05,0.01 0.19,0.06 0.26,0.07c0.02,0.01 0.02,0.01 0.03,0.02c0.07,0.05 0.14,0.09 0.21,0.13c-0.29,-0.19 0,0.02 0.05,0.07c0.04,0.03 0.07,0.07 0.1,0.1a0.81,0.81 0 0 1 0.08,0.11c0.04,0.09 0.1,0.18 0.15,0.26l0.01,0.02a0.08,0.08 0 0 0 0,0.01a2.37,2.37 0 0 0 0.11,0.41a0.33,0.33 0 0 1 0.01,0.03c0,0.08 0.01,0.16 0.01,0.23l0,0.02a1.64,1.64 0 0 0 -1.5,-0.01z" fill="#e6e6e6" id="svg_30"/>
  <polygon fill="#e6e6e6" id="svg_31" points="212.171 152.905 212.167 152.907 212.175 152.905 212.171 152.905"/>
  <path d="m212.18,152.9l0,0.01l0,-0.01z" fill="#e6e6e6" id="svg_32"/>
  <path d="m212.18,152.91l0,0c0.01,0 0,0 0,0z" fill="#e6e6e6" id="svg_33"/>
  <path d="m212.18,152.91c0.01,0 0,0 0,0z" fill="#e6e6e6" id="svg_34"/>
  <path d="m280.38,185.15a5.96,5.96 0 0 0 -7.23,-2.68a5.25,5.25 0 0 0 -2.99,2.79c-0.05,0.13 -0.09,0.28 -0.13,0.42c-0.07,0.1 -0.15,0.2 -0.2,0.31a5.96,5.96 0 0 0 9.29,7.11a6.42,6.42 0 0 0 1.26,-7.95zm-3.76,2.55c0.01,0.07 0.01,0.14 0,0zm-0.38,-0.87c-0.02,-0.02 -0.02,-0.02 0,0zm-1.69,0.67c-0.02,-0.03 -0.02,-0.04 0,0zm0.4,0.34c0.1,0.03 0.06,0.03 0,0zm0.18,0.09l0.04,-0.02a0.05,0.05 0 0 1 -0.03,-0.01l0,0l0.04,0.01l0,-0.01l-0.02,0c0.02,0 0.02,0 0.02,0c0.18,-0.08 0.06,-0.04 -0.04,-0.01l-0.01,0a0.68,0.68 0 0 0 -0.21,-0.06c0,-0.01 -0.01,-0.01 -0.02,-0.01c-0.05,-0.05 -0.34,-0.27 -0.08,-0.03c-0.05,-0.06 -0.11,-0.11 -0.17,-0.16a0.78,0.78 0 0 1 -0.09,-0.11q-0.05,-0.09 -0.1,-0.18l0,-0.04c-0.01,-0.03 -0.01,-0.04 -0.01,-0.05c0,-0.02 0,-0.04 0,-0.06a0.65,0.65 0 0 0 0.04,-0.16l0.01,-0.02c0.05,-0.06 0.08,-0.13 0.12,-0.19c-0.21,0.33 0.09,-0.04 0.11,-0.08c0.01,-0.01 0,-0.01 0,-0.01c0.01,-0.01 0.01,-0.01 0.02,-0.01c0.06,-0.04 0.13,-0.09 0.2,-0.12c0.08,-0.05 0.4,-0.14 0.07,-0.04c0.07,-0.03 0.14,-0.05 0.22,-0.07c0.02,-0.01 0.13,-0.02 0.19,-0.03c0.05,0 0.1,-0.01 0.11,-0.01c0.02,0 0.05,0.01 0.07,0.01c-0.05,0.01 0.19,0.06 0.26,0.07c0.02,0.01 0.02,0.01 0.03,0.02c0.07,0.05 0.14,0.09 0.21,0.13c-0.29,-0.19 0,0.02 0.05,0.07c0.04,0.03 0.07,0.07 0.1,0.1a0.81,0.81 0 0 1 0.08,0.11c0.04,0.09 0.1,0.18 0.15,0.26l0.01,0.02a0.08,0.08 0 0 0 0,0.01a2.37,2.37 0 0 0 0.11,0.41a0.33,0.33 0 0 1 0.01,0.03c0,0.08 0.01,0.16 0.01,0.23l0,0.02a1.64,1.64 0 0 0 -1.5,-0.01z" fill="#e6e6e6" id="svg_35"/>
  <polygon fill="#e6e6e6" id="svg_36" points="275.171 121.905 275.167 121.907 275.175 121.905 275.171 121.905"/>
  <path d="m275.18,121.9l0,0.01l0,-0.01z" fill="#e6e6e6" id="svg_37"/>
  <path d="m275.18,121.91l0,0c0.01,0 0,0 0,0z" fill="#e6e6e6" id="svg_38"/>
  <path d="m275.18,121.91c0.01,0 0,0 0,0z" fill="#e6e6e6" id="svg_39"/>
  <polygon fill="#e6e6e6" id="svg_40" points="275.177 121.902 275.177 121.902 275.179 121.903 275.177 121.902"/>
  <path d="m334.18,141.9l0,0.01l0,-0.01z" fill="#e6e6e6" id="svg_41"/>
  <path d="m339.38,139.15a5.96,5.96 0 0 0 -7.23,-2.68a5.25,5.25 0 0 0 -2.99,2.79c-0.05,0.13 -0.09,0.28 -0.13,0.42c-0.07,0.1 -0.15,0.2 -0.2,0.31a5.96,5.96 0 0 0 9.29,7.11a6.42,6.42 0 0 0 1.26,-7.95zm-3.76,2.55c0.01,0.07 0.01,0.14 0,0zm-0.38,-0.87c-0.02,-0.02 -0.02,-0.02 0,0zm-1.69,0.67c-0.02,-0.03 -0.02,-0.04 0,0zm0.4,0.34c0.1,0.03 0.06,0.03 0,0zm0.18,0.09l0.04,-0.02a0.05,0.05 0 0 1 -0.03,-0.01l0,0l0.04,0.01l0,-0.01l-0.02,0c0.02,0 0.02,0 0.02,0c0.18,-0.08 0.06,-0.04 -0.04,-0.01l-0.01,0a0.68,0.68 0 0 0 -0.21,-0.06c0,-0.01 -0.01,-0.01 -0.02,-0.01c-0.05,-0.05 -0.34,-0.27 -0.08,-0.03c-0.05,-0.06 -0.11,-0.11 -0.17,-0.16a0.78,0.78 0 0 1 -0.09,-0.11q-0.05,-0.09 -0.1,-0.18l0,-0.04c-0.01,-0.03 -0.01,-0.04 -0.01,-0.05c0,-0.02 0,-0.04 0,-0.06a0.65,0.65 0 0 0 0.04,-0.16l0.01,-0.02c0.05,-0.06 0.08,-0.13 0.12,-0.19c-0.21,0.33 0.09,-0.04 0.11,-0.08c0.01,-0.01 0,-0.01 0,-0.01c0.01,-0.01 0.01,-0.01 0.02,-0.01c0.06,-0.04 0.13,-0.09 0.2,-0.12c0.08,-0.05 0.4,-0.14 0.07,-0.04c0.07,-0.03 0.14,-0.05 0.22,-0.07c0.02,-0.01 0.13,-0.02 0.19,-0.03c0.05,0 0.1,-0.01 0.11,-0.01c0.02,0 0.05,0.01 0.07,0.01c-0.05,0.01 0.19,0.06 0.26,0.07c0.02,0.01 0.02,0.01 0.03,0.02c0.07,0.05 0.14,0.09 0.21,0.13c-0.29,-0.19 0,0.02 0.05,0.07c0.04,0.03 0.07,0.07 0.1,0.1a0.81,0.81 0 0 1 0.08,0.11c0.04,0.09 0.1,0.18 0.15,0.26l0.01,0.02a0.08,0.08 0 0 0 0,0.01a2.37,2.37 0 0 0 0.11,0.41a0.33,0.33 0 0 1 0.01,0.03c0,0.08 0.01,0.16 0.01,0.23l0,0.02a1.64,1.64 0 0 0 -1.5,-0.01z" fill="#e6e6e6" id="svg_42"/>
  <polygon fill="#e6e6e6" id="svg_43" points="334.171 141.905 334.167 141.907 334.175 141.905 334.171 141.905"/>
  <polygon fill="#e6e6e6" id="svg_44" points="334.177 141.902 334.177 141.902 334.179 141.903 334.177 141.902"/>
  <path d="m334.18,141.91c0.01,0 0,0 0,0z" fill="#e6e6e6" id="svg_45"/>
  <path d="m334.18,141.91l0,0c0.01,0 0,0 0,0z" fill="#e6e6e6" id="svg_46"/>
  <path d="m318.01,187.74l-46.5,2.58a1.03,1.03 0 0 1 -0.22,-2.04l47.52,-7.73l-0.8,7.19z" fill="#3f3d56" id="svg_47"/>
  <path d="m377.1,291.25l17.52,-29.48l12.95,6.12s-22.31,27.87 -23.03,28.67a6.86,6.86 0 1 1 -7.44,-5.31z" fill="#ffb6b6" id="svg_48"/>
  <path d="m384.39,222.78l28.38,14.81a15.72,15.72 0 0 1 2.66,23.08l-19.57,22.44l-8.52,-11.55l6.57,-13.74l-12.72,-3.35l3.2,-31.69z" fill="#6c63ff" id="svg_49"/>
  <path d="m303.49,188.22l-3.2,34.14l-14.32,0.02s8.22,-34.74 8.52,-35.77a6.86,6.86 0 1 1 9,1.61z" fill="#ffb6b6" id="svg_50"/>
  <path d="m332,258.04l-32.97,-6.05c-13.88,-1.67 -19.57,-10.8 -17.07,-19.71l8.06,-28.67l12.66,6.79l-0.05,15.23l17.71,-2.43l11.66,34.84z" fill="#6c63ff" id="svg_51"/>
  <polygon fill="#ffb6b6" id="svg_52" points="318.501 493.992 309.437 493.992 305.125 459.03 318.503 459.03 318.501 493.992"/>
  <path d="m318.82,503.45l-27.87,0l0,-0.35a10.85,10.85 0 0 1 10.85,-10.85l0,0l5.09,-3.86l9.5,3.86l2.44,0l-0.01,11.2z" fill="#514c5a" id="svg_53"/>
  <polygon fill="#ffb6b6" id="svg_54" points="382.636 493.992 391.7 493.992 396.012 459.03 382.634 459.03 382.636 493.992"/>
  <path d="m382.32,503.45l27.87,0l0,-0.35a10.85,10.85 0 0 0 -10.84,-10.85l-0.01,0l-5.09,-3.86l-9.5,3.86l-2.43,0l0,11.2z" fill="#514c5a" id="svg_55"/>
  <path d="m304.73,433.34c0.13,-1.99 1.2,-13.03 1.2,-13.03l2.55,-23.4l4.49,-62.02l4.01,-16.3l19.82,7.72l16.09,-7.71l19.12,6.11l14.89,5.59s0.02,2.39 0.14,5.28c0.15,3.77 0.42,8.41 1.06,9.61c1.06,2.13 0.79,13.56 0.79,13.56s1.06,23.25 2.39,25.8s1.6,7.86 1.2,8.92s1.33,28.99 1.33,28.99s4.45,49.41 1.66,56.86s-13.34,2.57 -13.34,2.57s0.51,-1.98 -2.55,-2.92s-12.38,-71 -12.38,-71s-1.73,-14.37 -3.32,-18.49s-3.06,-15.68 -3.06,-15.68s-9.84,-19.15 -9.97,-23.41c0,0 -1.29,-3.98 -2.5,0.41s-4.81,14.88 -4.81,14.88l-3.5,12.9l-4.12,19.28l-2.66,16.23s-3.99,21.53 -4.63,22.46s0,20.61 0,20.61s-3.08,16.75 -7.44,19.68s-15.91,0.05 -15.91,0.05s-0.68,-41.56 -0.55,-43.55z" fill="#514c5a" id="svg_56" transform="matrix(1 0 0 1 0 0)"/>
  <path d="m319.55,266.13l-2.53,32.82l-3.81,3.94a3.67,3.67 0 0 0 0.19,5.29l0,0l-2.09,3.59l-0.75,11.33a6.16,6.16 0 0 0 5.7,7.59l65.64,3.09a6.16,6.16 0 0 0 6.39,-6.97l-5.58,-42.01l0,-3.14l-2.5,-6.07l1.28,-20.32l2.99,-32.26l-17.36,-4.49l-9.42,-6.47l-16.35,0.26l-9.92,8.15l-13.23,2.07l-10.01,1.99l-1.28,2.77l2.55,-0.55l9.24,36.04l0.85,3.35z" fill="#6c63ff" id="svg_57"/>
  <circle cx="349.16" cy="188.38" fill="#ffb6b6" id="svg_58" r="19.27"/>
  <path d="m344.52,206.41l13.92,-0.71c1.78,-0.09 3.73,-0.25 5.02,-1.48a7.62,7.62 0 0 0 1.58,-2.62c1.29,-2.99 2.58,-5.98 3.83,-8.98c1.73,-4.16 3.44,-8.54 3,-13.02a8.29,8.29 0 0 0 -2.41,-5.43a4.6,4.6 0 0 0 -5.59,-0.57a9.45,9.45 0 0 0 -4.7,-6.81a14.49,14.49 0 0 0 -8.26,-1.75a19.94,19.94 0 0 0 -11.35,4.47a24.65,24.65 0 0 1 -2.9,2.3a4.55,4.55 0 0 1 -3.54,0.65a2.56,2.56 0 0 1 -1.88,-2.79a4.92,4.92 0 0 0 -1.25,6.5a4.54,4.54 0 0 1 -4.44,-0.52a5.43,5.43 0 1 0 5.69,9.19c0.84,1.18 0.53,2.79 0.42,4.24s0.28,3.25 1.67,3.65c1.89,0.54 3.42,-2 5.39,-1.98a2.96,2.96 0 0 1 2.34,1.52a8.72,8.72 0 0 1 0.94,2.73l2.52,11.33" fill="#514c5a" id="svg_59"/>
  <path d="m887.26,379.64c0,-2.98 -1,-5.41 -2.23,-5.41l-335.35,0c-1.23,0 -2.23,2.43 -2.23,5.41l0,122.81a1.11,1.11 0 0 1 -1.01,1.11q-1.35,0.13 -2.7,0.24c-0.02,0 -0.04,0 -0.07,0c-0.49,0.05 -0.98,0.08 -1.47,0.12l0,0q-0.38,-0.7 -0.75,-1.41a1.12,1.12 0 0 1 -0.13,-0.52l0,-129.37c0,-0.82 0.04,-1.65 0.09,-2.47a31.66,31.66 0 0 1 0.42,-3.35c0.94,-5.17 3.07,-8.67 5.48,-8.68l340.09,0a2.61,2.61 0 0 1 1.02,0.21a3.99,3.99 0 0 1 1.26,0.89a7.83,7.83 0 0 1 1.24,1.69a22.34,22.34 0 0 1 2.35,8.87c0,0.03 0,0.07 0,0.1c0.08,0.9 0.12,1.82 0.11,2.74l0.08,11.93l0.05,7.11l0.15,22.32l0.06,7.93l0.24,81.37l0,0a1.11,1.11 0 0 1 -1.11,1.11l-4.48,0a1.11,1.11 0 0 1 -1.11,-1.11l0,-123.64z" fill="#e6e6e6" id="svg_60"/>
  <path d="m796.14,302.3l-36.14,0a1.93,1.93 0 0 0 -1.92,1.93l0,57.08l39.99,0l0,-57.08a1.93,1.93 0 0 0 -1.93,-1.93zm-17.95,32.43a4.29,4.29 0 0 1 -4.26,-4.26l0,-6.59a4.27,4.27 0 0 1 8.53,0l0,6.59a4.29,4.29 0 0 1 -4.27,4.26z" fill="#ccc" id="svg_61"/>
  <path d="m757.95,359.49l0,5.5a1.08,1.08 0 0 0 1.08,1.08l38.08,0a1.08,1.08 0 0 0 1.08,-1.08l0,-5.5l-40.24,0z" fill="#3f3d56" id="svg_62"/>
  <path d="m855.97,213.22l-154.46,0a5.01,5.01 0 0 0 -5,5.01l0,104.23a5.01,5.01 0 0 0 5,5l154.46,0a5.01,5.01 0 0 0 5.01,-5l0,-104.23a5.01,5.01 0 0 0 -5.01,-5.01z" fill="#e6e6e6" id="svg_63"/>
  <path d="m854.68,216.84l-151.88,0a2.68,2.68 0 0 0 -2.67,2.68l0,101.65a2.68,2.68 0 0 0 2.67,2.67l151.88,0a2.68,2.68 0 0 0 2.68,-2.67l0,-101.65a2.68,2.68 0 0 0 -2.68,-2.68z" fill="#fff" id="svg_64"/>
  <path d="m825.1,367.99l-90.36,0a1.66,1.66 0 0 1 -1.63,-2.01l1.41,-6.66a1.67,1.67 0 0 1 1.62,-1.32l87.56,0a1.67,1.67 0 0 1 1.62,1.32l1.41,6.66a1.66,1.66 0 0 1 -1.63,2.01z" fill="#ccc" id="svg_65"/>
  <rect fill="#e6e6e6" height="1.67" id="svg_66" rx="0.49" width="2.78" x="736.78" y="359.2"/>
  <rect fill="#e6e6e6" height="1.67" id="svg_67" rx="0.49" width="2.78" x="742.34" y="359.2"/>
  <rect fill="#e6e6e6" height="1.67" id="svg_68" rx="0.49" width="2.78" x="747.91" y="359.2"/>
  <rect fill="#e6e6e6" height="1.67" id="svg_69" rx="0.49" width="2.78" x="753.48" y="359.2"/>
  <rect fill="#e6e6e6" height="1.67" id="svg_70" rx="0.49" width="2.78" x="759.04" y="359.2"/>
  <rect fill="#e6e6e6" height="1.67" id="svg_71" rx="0.49" width="2.78" x="764.61" y="359.2"/>
  <rect fill="#e6e6e6" height="1.67" id="svg_72" rx="0.49" width="2.78" x="770.17" y="359.2"/>
  <rect fill="#e6e6e6" height="1.67" id="svg_73" rx="0.49" width="2.78" x="775.74" y="359.2"/>
  <rect fill="#e6e6e6" height="1.67" id="svg_74" rx="0.49" width="2.78" x="781.31" y="359.2"/>
  <rect fill="#e6e6e6" height="1.67" id="svg_75" rx="0.49" width="2.78" x="786.87" y="359.2"/>
  <rect fill="#e6e6e6" height="1.67" id="svg_76" rx="0.49" width="2.78" x="792.44" y="359.2"/>
  <rect fill="#e6e6e6" height="1.67" id="svg_77" rx="0.49" width="2.78" x="798" y="359.2"/>
  <rect fill="#e6e6e6" height="1.67" id="svg_78" rx="0.49" width="2.78" x="803.57" y="359.2"/>
  <rect fill="#e6e6e6" height="1.67" id="svg_79" rx="0.49" width="2.78" x="809.14" y="359.2"/>
  <rect fill="#e6e6e6" height="1.67" id="svg_80" rx="0.49" width="2.78" x="814.7" y="359.2"/>
  <rect fill="#e6e6e6" height="1.67" id="svg_81" rx="0.49" width="2.78" x="820.27" y="359.2"/>
  <rect fill="#e6e6e6" height="1.67" id="svg_82" rx="0.49" width="2.78" x="736.71" y="361.98"/>
  <rect fill="#e6e6e6" height="1.67" id="svg_83" rx="0.49" width="2.78" x="742.28" y="361.98"/>
  <rect fill="#e6e6e6" height="1.67" id="svg_84" rx="0.49" width="2.78" x="747.85" y="361.98"/>
  <rect fill="#e6e6e6" height="1.67" id="svg_85" rx="0.49" width="2.78" x="753.41" y="361.98"/>
  <rect fill="#e6e6e6" height="1.67" id="svg_86" rx="0.49" width="2.78" x="758.98" y="361.98"/>
  <rect fill="#e6e6e6" height="1.67" id="svg_87" rx="0.49" width="2.78" x="764.54" y="361.98"/>
  <rect fill="#e6e6e6" height="1.67" id="svg_88" rx="0.49" width="2.78" x="770.11" y="361.98"/>
  <rect fill="#e6e6e6" height="1.67" id="svg_89" rx="0.49" width="2.78" x="775.68" y="361.98"/>
  <rect fill="#e6e6e6" height="1.67" id="svg_90" rx="0.49" width="2.78" x="781.24" y="361.98"/>
  <rect fill="#e6e6e6" height="1.67" id="svg_91" rx="0.49" width="2.78" x="786.81" y="361.98"/>
  <rect fill="#e6e6e6" height="1.67" id="svg_92" rx="0.49" width="2.78" x="792.37" y="361.98"/>
  <rect fill="#e6e6e6" height="1.67" id="svg_93" rx="0.49" width="2.78" x="797.94" y="361.98"/>
  <rect fill="#e6e6e6" height="1.67" id="svg_94" rx="0.49" width="2.78" x="803.5" y="361.98"/>
  <rect fill="#e6e6e6" height="1.67" id="svg_95" rx="0.49" width="2.78" x="809.07" y="361.98"/>
  <rect fill="#e6e6e6" height="1.67" id="svg_96" rx="0.49" width="2.78" x="814.64" y="361.98"/>
  <rect fill="#e6e6e6" height="1.67" id="svg_97" rx="0.49" width="2.78" x="820.2" y="361.98"/>
  <rect fill="#e6e6e6" height="1.67" id="svg_98" rx="0.49" width="22.26" x="763.43" y="365.32"/>
  <path d="m847.05,230.84l-142.11,0a0.57,0.57 0 0 1 0,-1.13l142.11,0a0.57,0.57 0 0 1 0,1.13z" fill="#cacaca" id="svg_99"/>
  <ellipse cx="714.61" cy="223.44" fill="#ccc" id="svg_100" rx="3.31" ry="3.39"/>
  <ellipse cx="726.05" cy="223.44" fill="#ccc" id="svg_101" rx="3.31" ry="3.39"/>
  <ellipse cx="737.49" cy="223.44" fill="#ccc" id="svg_102" rx="3.31" ry="3.39"/>
  <path d="m840.16,220.89l-8.13,0a0.62,0.62 0 0 0 0,1.23l8.13,0a0.62,0.62 0 0 0 0,-1.23z" fill="#ccc" id="svg_103"/>
  <path d="m840.16,223.2l-8.13,0a0.62,0.62 0 0 0 0,1.23l8.13,0a0.62,0.62 0 0 0 0,-1.23z" fill="#ccc" id="svg_104"/>
  <path d="m840.16,225.51l-8.13,0a0.62,0.62 0 0 0 0,1.23l8.13,0a0.62,0.62 0 0 0 0,-1.23z" fill="#ccc" id="svg_105"/>
  <rect fill="#6c63ff" height="4.83" id="svg_106" rx="2.42" width="22.59" x="767.29" y="261.63"/>
  <rect fill="#e6e6e6" height="4.83" id="svg_107" rx="2.42" width="45.53" x="755.82" y="271.29"/>
  <rect fill="#e6e6e6" height="4.83" id="svg_108" rx="2.42" width="45.53" x="755.82" y="280.95"/>
  <polygon fill="#ffb6b6" id="svg_109" points="524.726 431.447 516.54 427.531 527.785 393.314 539.867 399.092 524.726 431.447"/>
  <path d="m579.61,425.93c-0.59,0.38 -1.19,0.74 -1.79,1.11c-1.2,0.73 -2.4,1.45 -3.61,2.16c-0.61,0.36 -1.22,0.71 -1.83,1.06l0,0.02l-0.04,0.01l-0.01,0l-0.93,0.23l-1.32,-3.51l-0.62,-1.62l-0.86,-2.29l-1.59,-4.19l-8.36,-22.07l13,-3.2l0.48,1.99l0.01,0l0.24,0.98l4.54,18.41l0.92,3.77l0.03,0.11l0.56,2.25l0.49,1.95l0.53,2.18l0.16,0.65z" fill="#ffb6b6" id="svg_110"/>
  <path d="m657.13,348.43c-0.83,1.33 -1.67,2.64 -2.51,3.95q-2.37,3.64 -4.86,7.18c0,0 0,0 -0.01,0.01a16.98,16.98 0 0 1 -3.19,2.33c-0.04,0.03 -0.1,0.06 -0.15,0.09a11.75,11.75 0 0 1 -2.68,1.07c-0.34,0.09 -0.68,0.17 -1.01,0.26c-1.22,0.29 -2.42,0.53 -3.62,0.75c-2.13,0.38 -4.23,0.65 -6.32,0.82c-0.17,0.01 -0.34,0.03 -0.51,0.04c-8.6,0.63 -16.98,-0.39 -25.72,-2.05c-4.32,-0.82 -8.73,-1.8 -13.29,-2.82c-1.49,-0.33 -2.99,-0.66 -4.51,-0.99c-0.11,-0.03 -0.23,-0.06 -0.35,-0.08c-2.17,-0.48 -4.37,-0.95 -6.62,-1.41c-2.84,-0.58 -5.77,-1.15 -8.81,-1.68l0.22,4.28a32.27,32.27 0 0 0 2.03,9.64c1.3,3.8 2.33,6.81 0.15,13.07l-1.04,3.03a10.35,10.35 0 0 1 -1.07,9.16l-0.21,0.32l8.73,22.07l0.56,1.43l-4.46,0l-5.5,0.01l-9.31,0l-13.44,-26.96l-0.65,-1.29l0,-0.07l1.39,-51.81c0.02,-0.46 0.06,-0.92 0.12,-1.38a15.75,15.75 0 0 1 5.99,-10.61a15.17,15.17 0 0 1 11.3,-3.09l4.6,0.6l9.4,1.21l6.62,0.86l0.13,0.02l19.53,2.53l1.4,-5.72l0.26,-0.09l8.22,-3.02l28.43,-10.42l0.07,-0.02l1.87,-0.69l0.22,0.37c0.07,0.1 0.13,0.21 0.19,0.32a55.73,55.73 0 0 1 4.49,10.43a163.68,163.68 0 0 1 4.72,18.02q0.09,0.39 0.15,0.72l0.02,0.07c0.01,0.1 0.03,0.16 0.03,0.18a16.82,16.82 0 0 1 -1,9.36z" fill="#514c5a" id="svg_111"/>
  <path d="m658.33,329.34c-0.09,-0.39 -0.21,-0.78 -0.33,-1.16a82.27,82.27 0 0 0 -3.33,-8.43c-1.42,-3.12 -3.12,-6.47 -5.14,-10.1q-1.47,-2.63 -3.17,-5.48q-0.85,-1.42 -1.76,-2.9a1.53,1.53 0 0 0 -0.08,-0.13l-0.17,-0.29l-28.13,3.76l-10.48,1.4l-0.62,5.22l-0.15,1.3c-0.01,0 -0.01,0 0,0l-0.42,3.53l0,0l-0.56,4.66l-0.05,-0.01l-15.54,-2.01l-16.02,-2.08l-8.61,-1.11a15.16,15.16 0 0 0 -11.3,3.09a15.76,15.76 0 0 0 -5.99,10.61c-0.05,0.42 -0.09,0.85 -0.11,1.28l-8.12,19.23a124.11,124.11 0 0 0 -9.17,36.11l-5.96,19.03l0.85,0.08l12.62,1.17l3.33,0.31l7.33,-10.71c0.84,-1.22 1.63,-2.48 2.37,-3.76a57.17,57.17 0 0 0 3.25,-6.52l15.86,-37.76q1.84,0.31 3.65,0.6q8.34,1.35 16.02,2.21c16.63,1.85 31.04,2 43.87,0.42q5.4,-0.66 10.44,-1.73q1.85,-0.39 3.65,-0.84c0.29,-0.06 0.56,-0.13 0.84,-0.2a15.35,15.35 0 0 0 10.73,-10.03a15.66,15.66 0 0 0 0.4,-8.76z" fill="#514c5a" id="svg_112"/>
  <path d="m527.35,425.86l-8.86,-4.24l-1.39,-0.67l-2.22,5.45l-15.49,3.41a3.68,3.68 0 0 0 -0.6,6.99l15.13,6.17l4.81,-4.32l-1.18,5.8l5.7,2.33l6.25,-19.88l-2.15,-1.04z" fill="#514c5a" id="svg_113"/>
  <polygon fill="#2f2e41" id="svg_114" points="581.774 417.469 582.34 418.9 581.774 418.9 581.774 417.469"/>
  <path d="m578.69,419.21l-9.28,3.21l-1.45,0.51l2.25,5.43l-8.6,13.32a3.68,3.68 0 0 0 4.49,5.39l15.1,-6.26l0.37,-6.45l3.25,4.95l5.68,-2.36l-9.55,-18.52l-2.26,0.78z" fill="#514c5a" id="svg_115"/>
  <path d="m522.36,220.25a6.59,6.59 0 0 0 9.86,2.24l19.52,12.95l0.03,-12.17l-18.53,-10.44a6.63,6.63 0 0 0 -10.88,7.42z" fill="#ffb6b6" id="svg_116"/>
  <path d="m536.94,225.88l9.11,-10.36l37.07,22.01l49.15,-4.5a16.62,16.62 0 0 1 18.06,18.08l0,0a16.64,16.64 0 0 1 -18.08,15.01l-55.35,-5.12l-39.96,-35.12z" fill="#e5e5e5" id="svg_117"/>
  <path d="m651.01,226.04l-0.08,-0.11l0,0a35.91,35.91 0 0 0 -34.76,18.01l-4.17,7.34c-13.49,16.5 -3.69,27.87 -3.1,29.56l-4.68,21.59l1.05,7.23l0.52,2.15l53.46,27.93c3.04,-14.63 0.1,-27.09 -10.99,-36.6l10.73,-33.38a47.02,47.02 0 0 0 -7.98,-43.72z" fill="#e5e5e5" id="svg_118"/>
  <path d="m608.51,388.19l-17.15,0a3.92,3.92 0 0 1 -3.87,-3.36a87.18,87.18 0 0 1 0,-23.48a3.92,3.92 0 0 1 3.81,-3.37c5.39,-2.42 11.2,-2.42 17.27,0a3.87,3.87 0 0 1 2.94,1.42a3.96,3.96 0 0 1 0.82,3.3a52.71,52.71 0 0 0 0,20.77a3.96,3.96 0 0 1 -0.82,3.3a3.87,3.87 0 0 1 -3,1.42z" fill="#6c63ff" id="svg_119"/>
  <path d="m606.71,366.93l-14.43,0a0.9,0.9 0 1 1 0,-1.8l14.43,0a0.9,0.9 0 1 1 0,1.8z" fill="#fff" id="svg_120"/>
  <path d="m606.71,374.15l-14.43,0a0.9,0.9 0 1 1 0,-1.81l14.43,0a0.9,0.9 0 1 1 0,1.81z" fill="#fff" id="svg_121"/>
  <path d="m606.71,381.36l-14.43,0a0.9,0.9 0 1 1 0,-1.8l14.43,0a0.9,0.9 0 1 1 0,1.8z" fill="#fff" id="svg_122"/>
  <path d="m525.51,226.19l-17.15,0a3.92,3.92 0 0 1 -3.87,-3.36a87.18,87.18 0 0 1 0,-23.48a3.92,3.92 0 0 1 3.81,-3.37c5.39,-2.42 11.2,-2.42 17.27,0a3.87,3.87 0 0 1 2.94,1.42a3.96,3.96 0 0 1 0.82,3.3a52.71,52.71 0 0 0 0,20.77a3.96,3.96 0 0 1 -0.82,3.3a3.87,3.87 0 0 1 -3,1.42z" fill="#6c63ff" id="svg_123"/>
  <path d="m523.71,204.93l-14.43,0a0.9,0.9 0 1 1 0,-1.8l14.43,0a0.9,0.9 0 1 1 0,1.8z" fill="#fff" id="svg_124"/>
  <path d="m523.71,212.15l-14.43,0a0.9,0.9 0 1 1 0,-1.81l14.43,0a0.9,0.9 0 1 1 0,1.81z" fill="#fff" id="svg_125"/>
  <path d="m523.71,219.36l-14.43,0a0.9,0.9 0 1 1 0,-1.8l14.43,0a0.9,0.9 0 1 1 0,1.8z" fill="#fff" id="svg_126"/>
  <path d="m224.51,270.19l-17.15,0a3.92,3.92 0 0 1 -3.87,-3.36a87.18,87.18 0 0 1 0,-23.48a3.92,3.92 0 0 1 3.81,-3.37c5.39,-2.42 11.2,-2.42 17.27,0a3.87,3.87 0 0 1 2.94,1.42a3.96,3.96 0 0 1 0.82,3.3a52.71,52.71 0 0 0 0,20.77a3.96,3.96 0 0 1 -0.82,3.3a3.87,3.87 0 0 1 -3,1.42z" fill="#6c63ff" id="svg_127"/>
  <path d="m222.71,248.93l-14.43,0a0.9,0.9 0 1 1 0,-1.8l14.43,0a0.9,0.9 0 1 1 0,1.8z" fill="#fff" id="svg_128"/>
  <path d="m222.71,256.15l-14.43,0a0.9,0.9 0 1 1 0,-1.81l14.43,0a0.9,0.9 0 1 1 0,1.81z" fill="#fff" id="svg_129"/>
  <path d="m222.71,263.36l-14.43,0a0.9,0.9 0 1 1 0,-1.8l14.43,0a0.9,0.9 0 1 1 0,1.8z" fill="#fff" id="svg_130"/>
  <path d="m613.53,366.28a6.59,6.59 0 0 0 1.65,-9.98l11.77,-20.25l-12.15,0.69l-9.32,19.12a6.63,6.63 0 0 0 8.05,10.42z" fill="#ffb6b6" id="svg_131"/>
  <path d="m618.28,351.39l-10.88,-8.48l19.77,-38.31l-7.4,-48.79a16.62,16.62 0 0 1 16.97,-19.11l0,0a16.64,16.64 0 0 1 16.06,17.16l-1.83,55.56l-32.69,41.97z" fill="#e5e5e5" id="svg_132"/>
  <path d="m92.39,340.92a6.65,6.65 0 0 0 -0.92,-10.15l10.58,-52.56l-11.69,3.75l-8.47,50.84a6.68,6.68 0 0 0 10.5,8.12z" fill="#9e616a" id="svg_133"/>
  <path d="m108.01,229.72l-7.25,-5.48s-6.39,-0.45 -7.52,11.08s-3.46,34.02 -3.46,34.02l-11.1,51.38l15.36,3.38l11.88,-55.46l7.13,-16.47l-5.04,-22.45z" fill="#e5e5e5" id="svg_134"/>
  <polygon fill="#9e616a" id="svg_135" points="96.057 313.623 136.914 312.942 140.319 285.023 96.057 285.023 96.057 313.623"/>
  <polygon fill="#9e616a" id="svg_136" points="132.828 485.427 142.26 485.427 146.747 449.046 132.826 449.047 132.828 485.427"/>
  <polygon fill="#9e616a" id="svg_137" points="73.738 486.301 83.17 486.234 87.402 449.823 75.135 452.637 73.738 486.301"/>
  <polygon fill="#ffb6b6" id="svg_138" points="103.238 260.98 101.101 266.536 101.528 272.093 143.355 286.58 141.28 262.262 136.578 256.705 103.238 260.98"/>
  <circle cx="121.18" cy="196.04" fill="#9e616a" id="svg_139" r="14.94"/>
  <path d="m130.49,480.78l14.91,-0.89l0,6.38l14.18,9.79a3.99,3.99 0 0 1 -2.27,7.28l-17.75,0l-3.06,-6.32l-1.19,6.32l-6.7,0l1.88,-22.56z" fill="#514c5a" id="svg_140"/>
  <path d="m70.52,481.67l14.9,-0.99l0.04,6.39l14.25,9.69a3.99,3.99 0 0 1 -2.22,7.29l-17.75,0.12l-3.1,-6.3l-1.15,6.33l-6.7,0.05l1.73,-22.58z" fill="#514c5a" id="svg_141"/>
  <path d="m70.81,458.41l6.87,-54.9l8.17,-57.88c-5.99,-11.11 7.49,-45.62 7.49,-45.62l1.9,0.09l43.05,8.12l-0.01,-0.04c8.81,24.01 11.72,35.88 11.24,61.45l-1.73,91.94l0.54,0a3.4,3.4 0 0 1 0,6.81l-17.02,0a3.4,3.4 0 1 1 0,-6.81l0.43,0l-15.62,-109.47l-13.25,45.96l-14.98,59.93c5.45,-1.36 4.6,1.79 4.6,3.58a3.4,3.4 0 0 1 -3.4,3.4l-17.03,0a3.4,3.4 0 0 1 -1.25,-6.56z" fill="#514c5a" id="svg_142" transform="matrix(1 0 0 1 0 0)"/>
  <path d="m89.99,301.79l1.36,-13.62a2.71,2.71 0 0 1 2.45,-2.03c0.57,-6.49 2.96,-34.48 3.1,-35.7l0.01,-0.05l1.08,-23.19a3.43,3.43 0 0 1 3.2,-3.27l5.74,-0.37a0.3,0.3 0 0 0 0.29,-0.3a4.82,4.82 0 0 1 4.82,-4.83l16.98,0a4.51,4.51 0 0 1 4.48,3.96a0.3,0.3 0 0 0 0.3,0.27l0,0a8.07,8.07 0 0 1 8.12,6.69c2.32,13.5 6.97,44.15 4.67,61.19c-0.8,5.93 0.93,1.23 1.23,6.19a3.65,3.65 0 0 1 -0.91,2.65a2.63,2.63 0 0 1 1.58,3.35l0.3,-0.07a2.72,2.72 0 0 1 -3.3,1.97l-44.42,6.02c-1.46,-0.37 -11.45,-7.4 -11.08,-8.86z" fill="#e5e5e5" id="svg_143"/>
  <path d="m208.67,246.42a6.65,6.65 0 0 1 -9.36,4.03l-17.17,15.67l-2.28,-12.06l16.67,-12.99a6.68,6.68 0 0 1 12.14,5.35z" fill="#9e616a" id="svg_144"/>
  <path d="m148.91,234.44s-5.99,-13.53 -13.55,-10.84s-3.66,15.82 -3.66,15.82l28.41,42.81s40.98,-26.29 36,-26.47s-6.48,-9.25 -6.48,-9.25l-21.66,10.82l-0.73,-3.85l-1.17,1.17l-3.03,-2.38l-14.13,-17.83z" fill="#e5e5e5" id="svg_145"/>
  <circle cx="638.68" cy="198.72" fill="#ffb6b6" id="svg_146" r="20.86"/>
  <path d="m705.62,229.41a18.09,18.09 0 0 1 -9.94,7a20.8,20.8 0 0 1 -4.95,0.84a18.71,18.71 0 0 0 -1.47,-5.49a15.45,15.45 0 0 1 -0.76,5.48a18.39,18.39 0 0 1 -7.24,-1.94a15.95,15.95 0 0 1 -8.53,-11.44c-0.88,-5.71 1.7,-11.31 2.64,-17c0.94,-5.7 -0.83,-12.91 -6.4,-14.41c-4.25,-1.14 -3.77,-0.65 -7.3,1.97c3.67,5.43 -9.89,25.33 -15.44,23.59c-3.14,-0.98 -5.15,-3.86 -5.8,-3.86c-4.36,7.52 3.85,20.18 -4.43,22.81l0.69,-0.68c4.99,-6.15 -5.45,-19.16 -0.45,-25.31c1.39,-1.72 2.87,-3.75 2.46,-5.93c-0.39,-2.07 -3.67,-3.16 -4.63,-1.46c1.73,-3.96 -0.82,-9.24 -5.05,-10.26c-3.75,-0.91 -3.68,0.21 -7.45,0.69a18.69,18.69 0 0 0 -1.37,-4.72a15.32,15.32 0 0 1 -0.56,4.81a6.04,6.04 0 0 1 -3.65,-1.32c-3.07,-2.47 -2.45,-7.67 0.29,-10.51c2.74,-2.83 6.82,-3.85 10.71,-4.51c1.13,-7.88 22.86,-8.7 25.74,-0.83c1.23,-5.88 8.59,-8.93 14.3,-7.1s9.69,7.16 11.78,12.79c2.09,5.62 2.67,11.67 3.96,17.53s3.46,11.83 7.94,15.82c4.47,3.99 11.77,5.31 16.49,1.61a13.21,13.21 0 0 1 -1.58,11.83z" fill="#514c5a" id="svg_147"/>
  <path d="m901.3,277.01l-2.92,14.65c-0.22,1.12 -0.45,2.26 -0.7,3.39a14.29,14.29 0 0 0 -7.34,0.41a68.51,68.51 0 0 1 5.04,8.43c-1.84,5.67 -4.54,10.91 -9.06,14.7a22.72,22.72 0 0 1 -21.95,3.86l0.13,-0.58c-4.86,-9.43 -2.22,-21.32 3.82,-30.03a58.38,58.38 0 0 1 10.85,-11.47c4.08,-3.4 8.49,-6.45 12.86,-9.46a5.99,5.99 0 0 1 9.27,6.1z" fill="#6c63ff" id="svg_148"/>
  <path d="m865.41,357.7c-1.23,-8.95 -2.49,-18.02 -1.63,-27.07c0.76,-8.04 3.22,-15.88 8.21,-22.32a37.13,37.13 0 0 1 9.52,-8.63c0.96,-0.6 1.83,0.91 0.89,1.5a35.3,35.3 0 0 0 -13.97,16.85c-3.04,7.73 -3.53,16.16 -3,24.37c0.32,4.97 0.99,9.9 1.67,14.83a0.9,0.9 0 0 1 -0.61,1.08a0.88,0.88 0 0 1 -1.08,-0.61z" data-name="a4b268fa-75d0-4ac1-9d87-14bdca948464-2189" fill="#f2f2f2" id="a7585634-9c2c-4d81-a429-c019b32aabf2-89"/>
  <path d="m934.95,504.99l-933.75,0.31a1.19,1.19 0 0 1 0,-2.38l933.75,-0.31a1.19,1.19 0 0 1 0,2.38z" fill="#cacaca" id="svg_149"/>
  <path d="m103.6,186.89c-2.29,1.1 -4.85,-0.55 -6.83,-2.19l0.71,0.61c-3.5,3.4 -5.13,8.29 -5.93,13.11c-0.8,4.81 -0.89,9.73 -1.9,14.51c-1,4.78 -3.09,9.57 -7,12.49c-5.23,3.92 -12.44,3.67 -18.85,2.47c-0.09,-0.02 -0.17,-0.03 -0.26,-0.05a39.18,39.18 0 0 0 2.07,-15.53a35.62,35.62 0 0 1 -8.55,14.02a81.77,81.77 0 0 1 -12.42,-4.53c-2.6,-1.19 -5.39,-2.83 -6.11,-5.59c-0.72,-2.75 0.95,-5.62 3.2,-7.36s4.99,-2.63 7.54,-3.87c2.55,-1.23 5.08,-2.98 6.1,-5.62c2.35,-6.09 -4.36,-13.07 -1.74,-19.05c1.29,-2.94 4.45,-4.54 7.41,-5.77a108.83,108.83 0 0 1 13.93,-4.7c4.16,-1.1 8.51,-1.95 12.75,-1.23s8.4,3.3 9.92,7.32c2.55,0.86 5.25,1.83 6.89,3.98c1.63,2.14 1.5,5.82 -0.93,6.98z" fill="#514c5a" id="svg_150"/>
  <path d="m123.99,179.84c-6.55,-5.17 -11.85,-4.29 -15.94,-1.07c-0.69,-0.77 -3.61,1.33 -4.6,1.03l-3.59,6.73c-1.84,3.25 -2.6,6.57 -2.3,8.44c-3.39,9.51 4.65,15.93 14.16,19.32a18.14,18.14 0 0 0 11.77,0.17l0.11,-1.62l0.72,1.32s8.69,17.9 10.75,18.7c-1.25,-3.23 -4.54,-18.59 -5.45,-21.8c-1.26,-4.35 -0.4,-11.28 0.34,-15.52a24.06,24.06 0 0 0 0.07,-7.92l-0.02,-0.11l2.03,4.1l4.57,-2.87c-1.75,-5.08 -1.78,-11.15 -12.62,-8.9z" fill="#514c5a" id="svg_151"/>
 </g>
</svg>