<svg width="1307" height="3920" fill="none" xmlns="http://www.w3.org/2000/svg"><path d="M244 27c31-42 134.5-33.5 120 50S106 207.82 127.5 374.32c14 69 64.063 71.898 80.5 54 22.5-24.5-9.439-59.761-38.5-35.321C127.5 428.321-6 709.501 67 887c116.285 282.75 853.5 6.322 983-18.678 162-31.274 233 104.912 211 163.678-17.47 46.68-64 30.5-64-6 0-36.499 94.49-59.475 105.5 30.5 11.01 89.98-20.19 192.48-92 291.5C1039 1584.5 393 1706 393 1971c0 215.5 623 391.5 535.5 650-154.136 325.86-797.629 453-879 730-15.706 53.46-28.706 157 18.5 157 76 0 6.5-138.5-47.5-4.5-58.59 145.39 21 450.5 342.5 410" stroke="#E1E1FC" stroke-width="4" stroke-linecap="round" stroke-dasharray="16 24"/></svg>