<?xml version="1.0" standalone="no"?>
<!DOCTYPE svg PUBLIC "-//W3C//DTD SVG 20010904//EN"
 "http://www.w3.org/TR/2001/REC-SVG-20010904/DTD/svg10.dtd">
<svg version="1.0" xmlns="http://www.w3.org/2000/svg"
 width="321.000000pt" height="321.000000pt" viewBox="0 0 321.000000 321.000000"
 preserveAspectRatio="xMidYMid meet">
<metadata>
Created by potrace 1.14, written by Peter Selinger 2001-2017
</metadata>
<g transform="translate(0.000000,321.000000) scale(0.100000,-0.100000)"
fill="#000000" stroke="none">
<path d="M680 3005 c-36 -6 -83 -17 -105 -24 -49 -16 -153 -67 -169 -84 -7 -7
-28 -26 -47 -42 -103 -90 -179 -242 -194 -390 -7 -63 -6 -1628 1 -1715 10
-140 75 -288 161 -368 79 -74 253 -152 370 -167 139 -18 1599 -18 1782 -1 318
30 513 213 567 531 9 51 9 1695 0 1757 -39 280 -227 457 -536 503 -82 13
-1759 12 -1830 0z"/>
</g>
</svg>
