<svg version="1.1" xmlns="http://www.w3.org/2000/svg" viewBox="0 0 139.40423809890217 146.33349790301793" width="278.80847619780434" height="292.66699580603586">

  <g stroke-linecap="round"><g transform="translate(71.35407099424538 24.12486672714624) rotate(0 0.16092915168019317 46.71902581662056)"><path d="M0.2 1.97 C-8.46 11.72, -14.19 23, -25.08 42.95 M-0.1 -0.9 C-5.48 10.16, -9.43 18.26, -23.97 41.5 M-24.64 41.39 C-22.37 63.07, -17.15 83, -16.3 91.95 M-23.02 41.64 C-21.01 56.92, -17.77 72.09, -14.32 93.4 M-14.24 91.66 C-7.04 93.33, 1.75 91.18, 15.64 94.34 M-14.86 92.66 C-2.46 92.24, 7.93 92.79, 15.11 93.7 M14.14 92.5 C17.35 74.44, 19.93 58.35, 23.95 44.55 M15.78 92.55 C18.31 78.42, 20.16 65.88, 23.6 44.68 M25.4 43.93 C16.07 32.91, 11.81 18.42, 0.53 0.46 M25.2 45.97 C15.23 29.35, 8.18 14.15, -0.99 0.29" stroke="#000000" stroke-width="4" fill="none"></path></g></g><g stroke-linecap="round"><g transform="translate(71.22324744075831 29.469115743697444) rotate(0 0.5350786377675831 18.974186984512357)"><path d="M1.97 -1.98 C0.91 6.82, 1.52 15.62, 1.44 37.52 M-0.9 -0.46 C0.95 15.57, -0.13 29.2, 0 39.93" stroke="#000000" stroke-width="4" fill="none"></path></g></g><g stroke-linecap="round" transform="translate(65.54999783621406 68.84361087901982) rotate(0 5.925632296728509 5.740147741846556)"><path d="M7 0.63 C8.18 0.88, 9.33 2.37, 10.09 3.31 C10.86 4.25, 11.75 5.26, 11.59 6.28 C11.43 7.3, 9.87 8.41, 9.12 9.43 C8.37 10.45, 8.3 12.26, 7.1 12.4 C5.89 12.55, 3.15 11.03, 1.89 10.29 C0.63 9.55, -0.22 9.21, -0.47 7.97 C-0.72 6.73, -0.23 4.17, 0.37 2.86 C0.98 1.55, 2.09 0.44, 3.17 0.11 C4.26 -0.23, 6.09 0.67, 6.88 0.83 C7.67 0.99, 7.91 1.17, 7.92 1.06 M7.12 -0.75 C8.5 -0.95, 9.21 -0.09, 10.22 0.72 C11.23 1.52, 12.88 2.75, 13.18 4.09 C13.48 5.42, 13 7.62, 12.01 8.7 C11.01 9.79, 8.6 10.12, 7.22 10.61 C5.85 11.11, 5.01 11.95, 3.75 11.68 C2.48 11.4, 0.23 9.91, -0.37 8.97 C-0.96 8.04, 0 7.34, 0.17 6.07 C0.33 4.79, -0.52 2.11, 0.62 1.31 C1.76 0.5, 5.92 1.2, 7.02 1.24 C8.12 1.27, 7.4 1.79, 7.22 1.52" stroke="#000000" stroke-width="4" fill="none"></path></g><g stroke-linecap="round"><g transform="translate(57.27889561365828 124.01827303832454) rotate(0 15.982449751750664 -0.3227497641928494)"><path d="M1.14 -1.58 C10.82 -0.66, 19.2 -0.78, 31.17 0.3 M0.79 0.93 C8.08 0.28, 16.58 1.45, 29.43 0.41" stroke="#000000" stroke-width="4" fill="none"></path></g></g><g stroke-linecap="round"><g transform="translate(57.09792608079533 124.45973405754341) rotate(0 15.742964082970502 5.462992514662915)"><path d="M0.68 -0.95 C1.38 0.84, 0.95 7.76, 5.38 9.55 C9.8 11.34, 22.93 11.38, 27.23 9.81 C31.53 8.24, 30.69 1.88, 31.18 0.13 M-0.42 1.17 C0.11 3.2, 0.41 9.13, 4.94 10.71 C9.46 12.29, 22.22 12.25, 26.72 10.65 C31.21 9.04, 31.58 3.01, 31.9 1.1" stroke="#000000" stroke-width="4" fill="none"></path></g></g><g stroke-linecap="round"><g transform="translate(34.64072674714498 19.742220915050098) rotate(174.88687994003095 34.53495703525505 49.27244591490597)"><path d="M-0.95 0.97 C-4.8 8.01, -28.99 25.14, -24.3 42.95 C-19.62 60.77, 7.49 106.86, 27.17 107.86 C46.85 108.87, 89.5 68.53, 93.77 49 C98.04 29.47, 59.29 0.12, 52.8 -9.32 M0.76 0.43 C-2.6 7.05, -26.77 23.49, -21.97 41.08 C-17.16 58.68, 10.28 104.5, 29.58 105.99 C48.89 107.49, 89.74 69.24, 93.88 50.04 C98.02 30.84, 61.22 0.47, 54.42 -9.22" stroke="#000000" stroke-width="4" fill="none"></path></g></g></svg>